<svg width="16" height="20" viewBox="0 0 16 20" fill="none" xmlns="http://www.w3.org/2000/svg">
<path d="M15.6622 6.62206C14.7289 2.51539 11.1467 0.666504 8 0.666504C8 0.666504 8 0.666504 7.99111 0.666504C4.85334 0.666504 1.26223 2.5065 0.328892 6.61317C-0.711108 11.1998 2.09778 15.0843 4.64 17.5287C5.58223 18.4354 6.79111 18.8887 8 18.8887C9.20889 18.8887 10.4178 18.4354 11.3511 17.5287C13.8933 15.0843 16.7022 11.2087 15.6622 6.62206ZM8 11.0754C6.45334 11.0754 5.2 9.82206 5.2 8.27539C5.2 6.72873 6.45334 5.47539 8 5.47539C9.54667 5.47539 10.8 6.72873 10.8 8.27539C10.8 9.82206 9.54667 11.0754 8 11.0754Z" fill="#F6A13D"/>
</svg>
