<svg width="16" height="16" viewBox="0 0 16 16" fill="none" xmlns="http://www.w3.org/2000/svg">
<path d="M15.9868 7.52738C15.7149 2.88798 11.4994 -0.687551 6.64406 0.112346C3.30049 0.664274 0.620841 3.37591 0.100909 6.71947C-0.203052 8.65522 0.196914 10.487 1.0688 11.9988L0.356881 14.6465C0.196902 15.2464 0.748815 15.7903 1.34074 15.6223L3.94841 14.9024C5.13226 15.5983 6.51607 15.9983 7.99588 15.9983C12.5073 15.9983 16.2508 12.0228 15.9868 7.52738ZM11.9074 10.9749C11.8354 11.1189 11.7474 11.2549 11.6354 11.3829C11.4354 11.5989 11.2194 11.7588 10.9795 11.8548C10.7395 11.9588 10.4756 12.0068 10.1956 12.0068C9.78765 12.0068 9.3477 11.9108 8.89176 11.7108C8.42782 11.5109 7.97191 11.2469 7.51596 10.9189C7.05202 10.583 6.62007 10.207 6.20412 9.79908C5.78818 9.38313 5.4202 8.94318 5.08425 8.48724C4.75629 8.0313 4.49234 7.57536 4.30036 7.11942C4.10839 6.66348 4.01241 6.22355 4.01241 5.8076C4.01241 5.53564 4.0604 5.27167 4.15639 5.0317C4.25238 4.78374 4.40437 4.55977 4.62034 4.35979C4.87631 4.10383 5.15626 3.98384 5.45222 3.98384C5.5642 3.98384 5.67617 4.00784 5.78015 4.05583C5.88414 4.10382 5.98015 4.17581 6.05214 4.2798L6.98 5.59162C7.05199 5.6956 7.10799 5.7836 7.13999 5.87159C7.17998 5.95957 7.19599 6.03956 7.19599 6.11955C7.19599 6.21554 7.164 6.31154 7.10801 6.40753C7.05202 6.50351 6.98 6.59949 6.88402 6.69548L6.58005 7.01543C6.53206 7.06343 6.51609 7.11143 6.51609 7.17542C6.51609 7.20742 6.52406 7.23941 6.53206 7.2714C6.54806 7.3034 6.55609 7.3274 6.56409 7.3514C6.63608 7.48738 6.76404 7.65535 6.94001 7.86332C7.12399 8.07129 7.316 8.28727 7.52397 8.49524C7.73994 8.71122 7.94791 8.90318 8.16388 9.08716C8.37185 9.26314 8.5478 9.38314 8.68378 9.45513C8.70778 9.46313 8.7318 9.47911 8.75579 9.48711C8.78779 9.50311 8.81979 9.50312 8.85979 9.50312C8.93178 9.50312 8.97979 9.47913 9.02778 9.43114L9.3317 9.12717C9.43568 9.02318 9.53171 8.95119 9.6197 8.9032C9.71568 8.84721 9.80366 8.8152 9.90765 8.8152C9.98764 8.8152 10.0676 8.8312 10.1556 8.8712C10.2436 8.91119 10.3396 8.9592 10.4356 9.03119L11.7634 9.97506C11.8674 10.047 11.9394 10.135 11.9874 10.231C12.0274 10.335 12.0514 10.431 12.0514 10.543C12.0034 10.679 11.9714 10.8309 11.9074 10.9749Z" fill="#F6A13D"/>
</svg>
